<mxfile host="app.diagrams.net" modified="2023-09-08T16:01:31.730Z" agent="Mozilla/5.0 (Windows NT 10.0; Win64; x64; rv:109.0) Gecko/20100101 Firefox/117.0" etag="A4pIdcbQwbjI6tWSp7t4" version="21.7.2" type="device">
  <diagram name="Página-1" id="HKmwmI_5M4JmmlCz_lUt">
    <mxGraphModel dx="2501" dy="1943" grid="1" gridSize="10" guides="1" tooltips="1" connect="1" arrows="1" fold="1" page="1" pageScale="1" pageWidth="827" pageHeight="1169" math="0" shadow="0">
      <root>
        <mxCell id="0" />
        <mxCell id="1" parent="0" />
        <mxCell id="4ZwQj06T6GnaB9EJXEj5-18" style="edgeStyle=orthogonalEdgeStyle;rounded=0;orthogonalLoop=1;jettySize=auto;html=1;exitX=1;exitY=0.5;exitDx=0;exitDy=0;entryX=0;entryY=0.5;entryDx=0;entryDy=0;sketch=1;curveFitting=1;jiggle=2;" parent="1" source="S2u0RxWB_GNZn8mJDH2L-1" target="S2u0RxWB_GNZn8mJDH2L-41" edge="1">
          <mxGeometry relative="1" as="geometry">
            <mxPoint x="480" y="320" as="targetPoint" />
          </mxGeometry>
        </mxCell>
        <mxCell id="4ZwQj06T6GnaB9EJXEj5-59" style="edgeStyle=orthogonalEdgeStyle;rounded=0;orthogonalLoop=1;jettySize=auto;html=1;exitX=0.25;exitY=1;exitDx=0;exitDy=0;entryX=1;entryY=0.5;entryDx=0;entryDy=0;sketch=1;curveFitting=1;jiggle=2;" parent="1" source="S2u0RxWB_GNZn8mJDH2L-1" target="4ZwQj06T6GnaB9EJXEj5-55" edge="1">
          <mxGeometry relative="1" as="geometry" />
        </mxCell>
        <mxCell id="4ZwQj06T6GnaB9EJXEj5-61" style="edgeStyle=orthogonalEdgeStyle;rounded=0;orthogonalLoop=1;jettySize=auto;html=1;exitX=0.25;exitY=0;exitDx=0;exitDy=0;entryX=1;entryY=0.5;entryDx=0;entryDy=0;sketch=1;curveFitting=1;jiggle=2;" parent="1" source="S2u0RxWB_GNZn8mJDH2L-1" target="4ZwQj06T6GnaB9EJXEj5-60" edge="1">
          <mxGeometry relative="1" as="geometry" />
        </mxCell>
        <mxCell id="S2u0RxWB_GNZn8mJDH2L-1" value="&lt;font style=&quot;vertical-align: inherit;&quot;&gt;&lt;font style=&quot;vertical-align: inherit;&quot;&gt;Usuario&lt;/font&gt;&lt;/font&gt;" style="rounded=0;whiteSpace=wrap;html=1;sketch=1;curveFitting=1;jiggle=2;" parent="1" vertex="1">
          <mxGeometry x="180" y="290" width="120" height="60" as="geometry" />
        </mxCell>
        <mxCell id="S2u0RxWB_GNZn8mJDH2L-43" value="ID_Usuario" style="ellipse;whiteSpace=wrap;html=1;rounded=0;sketch=1;curveFitting=1;jiggle=2;" parent="1" vertex="1">
          <mxGeometry x="740" y="410" width="120" height="80" as="geometry" />
        </mxCell>
        <mxCell id="S2u0RxWB_GNZn8mJDH2L-44" value="Nombre" style="ellipse;whiteSpace=wrap;html=1;rounded=0;sketch=1;curveFitting=1;jiggle=2;" parent="1" vertex="1">
          <mxGeometry x="740" y="130" width="120" height="80" as="geometry" />
        </mxCell>
        <mxCell id="4ZwQj06T6GnaB9EJXEj5-51" style="edgeStyle=orthogonalEdgeStyle;rounded=0;orthogonalLoop=1;jettySize=auto;html=1;exitX=0.5;exitY=1;exitDx=0;exitDy=0;sketch=1;curveFitting=1;jiggle=2;" parent="1" source="S2u0RxWB_GNZn8mJDH2L-41" target="S2u0RxWB_GNZn8mJDH2L-43" edge="1">
          <mxGeometry relative="1" as="geometry" />
        </mxCell>
        <mxCell id="4ZwQj06T6GnaB9EJXEj5-52" style="edgeStyle=orthogonalEdgeStyle;rounded=0;orthogonalLoop=1;jettySize=auto;html=1;exitX=0.5;exitY=0;exitDx=0;exitDy=0;entryX=0.5;entryY=1;entryDx=0;entryDy=0;sketch=1;curveFitting=1;jiggle=2;" parent="1" source="S2u0RxWB_GNZn8mJDH2L-41" target="S2u0RxWB_GNZn8mJDH2L-44" edge="1">
          <mxGeometry relative="1" as="geometry" />
        </mxCell>
        <mxCell id="S2u0RxWB_GNZn8mJDH2L-41" value="Musica" style="rounded=0;whiteSpace=wrap;html=1;sketch=1;curveFitting=1;jiggle=2;" parent="1" vertex="1">
          <mxGeometry x="740" y="290" width="120" height="60" as="geometry" />
        </mxCell>
        <mxCell id="4ZwQj06T6GnaB9EJXEj5-4" value="&lt;font style=&quot;vertical-align: inherit;&quot;&gt;&lt;font style=&quot;vertical-align: inherit;&quot;&gt;Correo&lt;/font&gt;&lt;/font&gt;" style="ellipse;whiteSpace=wrap;html=1;rounded=0;sketch=1;curveFitting=1;jiggle=2;" parent="1" vertex="1">
          <mxGeometry x="65" y="830" width="120" height="80" as="geometry" />
        </mxCell>
        <mxCell id="4ZwQj06T6GnaB9EJXEj5-9" value="&lt;font style=&quot;vertical-align: inherit;&quot;&gt;&lt;font style=&quot;vertical-align: inherit;&quot;&gt;Contraseña&lt;/font&gt;&lt;/font&gt;" style="ellipse;whiteSpace=wrap;html=1;rounded=0;sketch=1;curveFitting=1;jiggle=2;" parent="1" vertex="1">
          <mxGeometry x="30" y="610" width="120" height="80" as="geometry" />
        </mxCell>
        <mxCell id="4ZwQj06T6GnaB9EJXEj5-12" value="&lt;font style=&quot;vertical-align: inherit;&quot;&gt;&lt;font style=&quot;vertical-align: inherit;&quot;&gt;Contraseña&lt;/font&gt;&lt;/font&gt;" style="ellipse;whiteSpace=wrap;html=1;rounded=0;sketch=1;curveFitting=1;jiggle=2;" parent="1" vertex="1">
          <mxGeometry x="60" y="-270" width="100" height="80" as="geometry" />
        </mxCell>
        <mxCell id="4ZwQj06T6GnaB9EJXEj5-13" value="&lt;font style=&quot;vertical-align: inherit;&quot;&gt;&lt;font style=&quot;vertical-align: inherit;&quot;&gt;Correo&amp;nbsp;&lt;/font&gt;&lt;/font&gt;" style="ellipse;whiteSpace=wrap;html=1;rounded=0;sketch=1;curveFitting=1;jiggle=2;" parent="1" vertex="1">
          <mxGeometry x="60" y="-10" width="100" height="80" as="geometry" />
        </mxCell>
        <mxCell id="4ZwQj06T6GnaB9EJXEj5-14" value="DNI-U" style="ellipse;whiteSpace=wrap;html=1;rounded=0;sketch=1;curveFitting=1;jiggle=2;" parent="1" vertex="1">
          <mxGeometry x="-100" y="-120" width="90" height="80" as="geometry" />
        </mxCell>
        <mxCell id="4ZwQj06T6GnaB9EJXEj5-28" value="DNII_U" style="ellipse;whiteSpace=wrap;html=1;rounded=0;sketch=1;curveFitting=1;jiggle=2;" parent="1" vertex="1">
          <mxGeometry x="-70" y="710" width="90" height="80" as="geometry" />
        </mxCell>
        <mxCell id="4ZwQj06T6GnaB9EJXEj5-43" value="Pone" style="rhombus;whiteSpace=wrap;html=1;rounded=0;sketch=1;curveFitting=1;jiggle=2;" parent="1" vertex="1">
          <mxGeometry x="470" y="280" width="80" height="80" as="geometry" />
        </mxCell>
        <mxCell id="4ZwQj06T6GnaB9EJXEj5-65" style="edgeStyle=orthogonalEdgeStyle;rounded=0;orthogonalLoop=1;jettySize=auto;html=1;exitX=0.25;exitY=0;exitDx=0;exitDy=0;entryX=0.5;entryY=1;entryDx=0;entryDy=0;sketch=1;curveFitting=1;jiggle=2;" parent="1" source="4ZwQj06T6GnaB9EJXEj5-55" target="4ZwQj06T6GnaB9EJXEj5-9" edge="1">
          <mxGeometry relative="1" as="geometry" />
        </mxCell>
        <mxCell id="4ZwQj06T6GnaB9EJXEj5-67" style="edgeStyle=orthogonalEdgeStyle;rounded=0;orthogonalLoop=1;jettySize=auto;html=1;exitX=0;exitY=0.5;exitDx=0;exitDy=0;entryX=0.999;entryY=0.622;entryDx=0;entryDy=0;entryPerimeter=0;sketch=1;curveFitting=1;jiggle=2;" parent="1" source="4ZwQj06T6GnaB9EJXEj5-55" target="4ZwQj06T6GnaB9EJXEj5-28" edge="1">
          <mxGeometry relative="1" as="geometry" />
        </mxCell>
        <mxCell id="4ZwQj06T6GnaB9EJXEj5-100" style="edgeStyle=orthogonalEdgeStyle;rounded=0;orthogonalLoop=1;jettySize=auto;html=1;exitX=0.5;exitY=1;exitDx=0;exitDy=0;entryX=0.446;entryY=-0.06;entryDx=0;entryDy=0;entryPerimeter=0;sketch=1;curveFitting=1;jiggle=2;" parent="1" source="4ZwQj06T6GnaB9EJXEj5-55" target="4ZwQj06T6GnaB9EJXEj5-4" edge="1">
          <mxGeometry relative="1" as="geometry" />
        </mxCell>
        <mxCell id="4ZwQj06T6GnaB9EJXEj5-55" value="Iniciar Sesion" style="rounded=0;whiteSpace=wrap;html=1;sketch=1;curveFitting=1;jiggle=2;" parent="1" vertex="1">
          <mxGeometry x="60" y="730" width="120" height="60" as="geometry" />
        </mxCell>
        <mxCell id="4ZwQj06T6GnaB9EJXEj5-62" style="edgeStyle=orthogonalEdgeStyle;rounded=0;orthogonalLoop=1;jettySize=auto;html=1;exitX=0.5;exitY=0;exitDx=0;exitDy=0;entryX=0.606;entryY=0.975;entryDx=0;entryDy=0;entryPerimeter=0;sketch=1;curveFitting=1;jiggle=2;" parent="1" source="4ZwQj06T6GnaB9EJXEj5-60" target="4ZwQj06T6GnaB9EJXEj5-12" edge="1">
          <mxGeometry relative="1" as="geometry" />
        </mxCell>
        <mxCell id="4ZwQj06T6GnaB9EJXEj5-84" style="edgeStyle=orthogonalEdgeStyle;rounded=0;hachureGap=4;orthogonalLoop=1;jettySize=auto;html=1;exitX=0;exitY=0.5;exitDx=0;exitDy=0;entryX=1;entryY=0.5;entryDx=0;entryDy=0;fontFamily=Architects Daughter;fontSource=https%3A%2F%2Ffonts.googleapis.com%2Fcss%3Ffamily%3DArchitects%2BDaughter;fontSize=16;sketch=1;curveFitting=1;jiggle=2;" parent="1" source="4ZwQj06T6GnaB9EJXEj5-60" target="4ZwQj06T6GnaB9EJXEj5-14" edge="1">
          <mxGeometry relative="1" as="geometry" />
        </mxCell>
        <mxCell id="4ZwQj06T6GnaB9EJXEj5-93" style="edgeStyle=orthogonalEdgeStyle;rounded=0;orthogonalLoop=1;jettySize=auto;html=1;exitX=0.5;exitY=1;exitDx=0;exitDy=0;entryX=0.604;entryY=0.006;entryDx=0;entryDy=0;entryPerimeter=0;sketch=1;curveFitting=1;jiggle=2;" parent="1" source="4ZwQj06T6GnaB9EJXEj5-60" target="4ZwQj06T6GnaB9EJXEj5-13" edge="1">
          <mxGeometry relative="1" as="geometry" />
        </mxCell>
        <mxCell id="4ZwQj06T6GnaB9EJXEj5-60" value="Registarse" style="rounded=0;whiteSpace=wrap;html=1;sketch=1;curveFitting=1;jiggle=2;" parent="1" vertex="1">
          <mxGeometry x="60" y="-110" width="120" height="60" as="geometry" />
        </mxCell>
        <mxCell id="4ZwQj06T6GnaB9EJXEj5-70" value="Editar Perfil" style="ellipse;whiteSpace=wrap;html=1;align=center;dashed=1;rounded=0;rotation=0;sketch=1;curveFitting=1;jiggle=2;" parent="1" vertex="1">
          <mxGeometry x="-65" y="840" width="100" height="40" as="geometry" />
        </mxCell>
        <mxCell id="4ZwQj06T6GnaB9EJXEj5-74" value="Aceptar Terminos Y Condiciones" style="ellipse;whiteSpace=wrap;html=1;align=center;dashed=1;rounded=0;sketch=1;curveFitting=1;jiggle=2;" parent="1" vertex="1">
          <mxGeometry x="-100" y="-230" width="110" height="90" as="geometry" />
        </mxCell>
        <mxCell id="4ZwQj06T6GnaB9EJXEj5-78" value="" style="endArrow=none;html=1;rounded=0;exitX=0.941;exitY=0.765;exitDx=0;exitDy=0;exitPerimeter=0;entryX=0;entryY=0;entryDx=0;entryDy=0;sketch=1;curveFitting=1;jiggle=2;" parent="1" source="4ZwQj06T6GnaB9EJXEj5-74" target="4ZwQj06T6GnaB9EJXEj5-60" edge="1">
          <mxGeometry width="50" height="50" relative="1" as="geometry">
            <mxPoint x="-40" y="90" as="sourcePoint" />
            <mxPoint y="80" as="targetPoint" />
          </mxGeometry>
        </mxCell>
        <mxCell id="4ZwQj06T6GnaB9EJXEj5-79" value="[1:M]" style="text;html=1;align=center;verticalAlign=middle;resizable=0;points=[];autosize=1;strokeColor=none;fillColor=none;rounded=0;sketch=1;curveFitting=1;jiggle=2;" parent="1" vertex="1">
          <mxGeometry x="290" y="290" width="50" height="30" as="geometry" />
        </mxCell>
        <mxCell id="4ZwQj06T6GnaB9EJXEj5-80" value="[M:M]" style="text;html=1;align=center;verticalAlign=middle;resizable=0;points=[];autosize=1;strokeColor=none;fillColor=none;rounded=0;sketch=1;curveFitting=1;jiggle=2;" parent="1" vertex="1">
          <mxGeometry x="480" y="260" width="50" height="30" as="geometry" />
        </mxCell>
        <mxCell id="4ZwQj06T6GnaB9EJXEj5-82" value="[M:M]" style="text;html=1;align=center;verticalAlign=middle;resizable=0;points=[];autosize=1;rounded=0;sketch=1;curveFitting=1;jiggle=2;" parent="1" vertex="1">
          <mxGeometry x="680" y="290" width="50" height="30" as="geometry" />
        </mxCell>
        <mxCell id="4ZwQj06T6GnaB9EJXEj5-87" value="Puede" style="rhombus;whiteSpace=wrap;html=1;rounded=0;sketch=1;curveFitting=1;jiggle=2;" parent="1" vertex="1">
          <mxGeometry x="170" y="100" width="80" height="80" as="geometry" />
        </mxCell>
        <mxCell id="4ZwQj06T6GnaB9EJXEj5-89" value="Puede" style="rhombus;whiteSpace=wrap;html=1;rounded=0;sketch=1;curveFitting=1;jiggle=2;" parent="1" vertex="1">
          <mxGeometry x="170" y="450" width="80" height="80" as="geometry" />
        </mxCell>
        <mxCell id="4ZwQj06T6GnaB9EJXEj5-92" value="" style="endArrow=none;html=1;rounded=0;sketch=1;curveFitting=1;jiggle=2;" parent="1" edge="1">
          <mxGeometry width="50" height="50" relative="1" as="geometry">
            <mxPoint x="10" y="840" as="sourcePoint" />
            <mxPoint x="60" y="790" as="targetPoint" />
          </mxGeometry>
        </mxCell>
        <mxCell id="4ZwQj06T6GnaB9EJXEj5-94" value="[M:M]" style="text;html=1;align=center;verticalAlign=middle;resizable=0;points=[];autosize=1;strokeColor=none;fillColor=none;rounded=0;sketch=1;curveFitting=1;jiggle=2;" parent="1" vertex="1">
          <mxGeometry x="185" y="-110" width="50" height="30" as="geometry" />
        </mxCell>
        <mxCell id="4ZwQj06T6GnaB9EJXEj5-95" value="[M:M]" style="text;html=1;align=center;verticalAlign=middle;resizable=0;points=[];autosize=1;strokeColor=none;fillColor=none;rounded=0;sketch=1;curveFitting=1;jiggle=2;" parent="1" vertex="1">
          <mxGeometry x="240" y="125" width="50" height="30" as="geometry" />
        </mxCell>
        <mxCell id="4ZwQj06T6GnaB9EJXEj5-96" value="[1:M]" style="text;html=1;align=center;verticalAlign=middle;resizable=0;points=[];autosize=1;strokeColor=none;fillColor=none;rounded=0;sketch=1;curveFitting=1;jiggle=2;" parent="1" vertex="1">
          <mxGeometry x="210" y="250" width="50" height="30" as="geometry" />
        </mxCell>
        <mxCell id="4ZwQj06T6GnaB9EJXEj5-97" value="[M:M]" style="text;html=1;align=center;verticalAlign=middle;resizable=0;points=[];autosize=1;strokeColor=none;fillColor=none;rounded=0;sketch=1;curveFitting=1;jiggle=2;" parent="1" vertex="1">
          <mxGeometry x="240" y="475" width="50" height="30" as="geometry" />
        </mxCell>
        <mxCell id="4ZwQj06T6GnaB9EJXEj5-98" value="[1:M]" style="text;html=1;align=center;verticalAlign=middle;resizable=0;points=[];autosize=1;strokeColor=none;fillColor=none;rounded=0;sketch=1;curveFitting=1;jiggle=2;" parent="1" vertex="1">
          <mxGeometry x="210" y="350" width="50" height="30" as="geometry" />
        </mxCell>
        <mxCell id="4ZwQj06T6GnaB9EJXEj5-99" value="[1:M]" style="text;html=1;align=center;verticalAlign=middle;resizable=0;points=[];autosize=1;strokeColor=none;fillColor=none;rounded=0;sketch=1;curveFitting=1;jiggle=2;" parent="1" vertex="1">
          <mxGeometry x="140" y="700" width="50" height="30" as="geometry" />
        </mxCell>
        <mxCell id="KQdEjlHrKBfhBYdsuH0A-1" value="" style="endArrow=none;html=1;rounded=0;" edge="1" parent="1">
          <mxGeometry width="50" height="50" relative="1" as="geometry">
            <mxPoint x="-85" y="-70" as="sourcePoint" />
            <mxPoint x="-25" y="-70" as="targetPoint" />
          </mxGeometry>
        </mxCell>
        <mxCell id="KQdEjlHrKBfhBYdsuH0A-2" value="" style="endArrow=none;html=1;rounded=0;" edge="1" parent="1">
          <mxGeometry width="50" height="50" relative="1" as="geometry">
            <mxPoint x="-55" y="760" as="sourcePoint" />
            <mxPoint x="5" y="760" as="targetPoint" />
          </mxGeometry>
        </mxCell>
        <mxCell id="KQdEjlHrKBfhBYdsuH0A-3" value="" style="endArrow=none;html=1;rounded=0;" edge="1" parent="1">
          <mxGeometry width="50" height="50" relative="1" as="geometry">
            <mxPoint x="770" y="460" as="sourcePoint" />
            <mxPoint x="830" y="460" as="targetPoint" />
          </mxGeometry>
        </mxCell>
        <mxCell id="KQdEjlHrKBfhBYdsuH0A-4" value="" style="endArrow=none;html=1;rounded=0;entryX=0;entryY=0.5;entryDx=0;entryDy=0;" edge="1" parent="1" source="KQdEjlHrKBfhBYdsuH0A-6" target="S2u0RxWB_GNZn8mJDH2L-1">
          <mxGeometry width="50" height="50" relative="1" as="geometry">
            <mxPoint x="-80" y="320" as="sourcePoint" />
            <mxPoint x="520" y="340" as="targetPoint" />
          </mxGeometry>
        </mxCell>
        <mxCell id="KQdEjlHrKBfhBYdsuH0A-5" value="Qr" style="rounded=0;whiteSpace=wrap;html=1;sketch=1;curveFitting=1;jiggle=2;" vertex="1" parent="1">
          <mxGeometry x="-200" y="290" width="120" height="60" as="geometry" />
        </mxCell>
        <mxCell id="KQdEjlHrKBfhBYdsuH0A-7" value="" style="edgeStyle=orthogonalEdgeStyle;rounded=0;orthogonalLoop=1;jettySize=auto;html=1;exitX=1;exitY=0.5;exitDx=0;exitDy=0;" edge="1" parent="1" source="KQdEjlHrKBfhBYdsuH0A-6" target="S2u0RxWB_GNZn8mJDH2L-1">
          <mxGeometry relative="1" as="geometry" />
        </mxCell>
        <mxCell id="KQdEjlHrKBfhBYdsuH0A-8" value="" style="endArrow=none;html=1;rounded=0;entryX=0;entryY=0.5;entryDx=0;entryDy=0;" edge="1" parent="1" target="KQdEjlHrKBfhBYdsuH0A-6">
          <mxGeometry width="50" height="50" relative="1" as="geometry">
            <mxPoint x="-80" y="320" as="sourcePoint" />
            <mxPoint x="180" y="320" as="targetPoint" />
          </mxGeometry>
        </mxCell>
        <mxCell id="KQdEjlHrKBfhBYdsuH0A-6" value="Escanea" style="rhombus;whiteSpace=wrap;html=1;rounded=0;sketch=1;curveFitting=1;jiggle=2;" vertex="1" parent="1">
          <mxGeometry x="10" y="280" width="80" height="80" as="geometry" />
        </mxCell>
        <mxCell id="KQdEjlHrKBfhBYdsuH0A-9" value="Dni-Qr" style="ellipse;whiteSpace=wrap;html=1;rounded=0;sketch=1;curveFitting=1;jiggle=2;" vertex="1" parent="1">
          <mxGeometry x="-230" y="380" width="100" height="70" as="geometry" />
        </mxCell>
        <mxCell id="KQdEjlHrKBfhBYdsuH0A-10" value="" style="endArrow=none;html=1;rounded=0;entryX=0.5;entryY=1;entryDx=0;entryDy=0;exitX=0.5;exitY=0;exitDx=0;exitDy=0;" edge="1" parent="1" source="KQdEjlHrKBfhBYdsuH0A-9" target="KQdEjlHrKBfhBYdsuH0A-5">
          <mxGeometry width="50" height="50" relative="1" as="geometry">
            <mxPoint x="-100" y="430" as="sourcePoint" />
            <mxPoint x="-50" y="380" as="targetPoint" />
          </mxGeometry>
        </mxCell>
        <mxCell id="KQdEjlHrKBfhBYdsuH0A-11" value="" style="endArrow=none;html=1;rounded=0;" edge="1" parent="1">
          <mxGeometry width="50" height="50" relative="1" as="geometry">
            <mxPoint x="-205" y="430" as="sourcePoint" />
            <mxPoint x="-155" y="430" as="targetPoint" />
          </mxGeometry>
        </mxCell>
        <mxCell id="KQdEjlHrKBfhBYdsuH0A-12" value="[1:M]" style="text;html=1;align=center;verticalAlign=middle;resizable=0;points=[];autosize=1;strokeColor=none;fillColor=none;rounded=0;sketch=1;curveFitting=1;jiggle=2;" vertex="1" parent="1">
          <mxGeometry x="-115" y="260" width="50" height="30" as="geometry" />
        </mxCell>
        <mxCell id="KQdEjlHrKBfhBYdsuH0A-13" value="[M:M]" style="text;html=1;align=center;verticalAlign=middle;resizable=0;points=[];autosize=1;strokeColor=none;fillColor=none;rounded=0;sketch=1;curveFitting=1;jiggle=2;" vertex="1" parent="1">
          <mxGeometry x="25" y="250" width="50" height="30" as="geometry" />
        </mxCell>
      </root>
    </mxGraphModel>
  </diagram>
</mxfile>
